<svg version="1.2" xmlns="http://www.w3.org/2000/svg" viewBox="0 0 1312 1600" width="1312" height="1600">
	<path d="m972.4 553.16c2.52-17.56 14.81-157.53-93.98-269.7-73.49-75.77-170.5-88.72-191.13-90.86-75.95-7.87-138.53 15.26-187.26 43.06-125.94 71.83-144.65 196.23-151.12 242.67-1.61 11.59 125.5 72.56 126.72 72.29 22.09-4.88 177.49-83.76 195.75-92.2 19.12-8.84 37.31 17.04 23.43 30.93-13.89 13.89-105.88 105.59-133.64 133.12 82.81-21.4 37.34 48.79 37.34 48.79 0 0 181.42-79.21 212.66-92.47 31.24-13.27 23.05 15.94 23.05 15.94l-18.05 39.88c0 0 21.95-7.57 73.42-27.72 51.47-20.15 26.77 29.05 26.77 29.05l-121.8 120.19c0 0 41.4-18.26 50.48-20.33 9.09-2.07 162.11 81.93 173.02 88.45 37.06 17.45 1.15 374.34-362.23 374.55-361.84 0.22-401.36-429.28-336.32-467.58 12.87-7.58 33.79 35.22 33.79 35.22-22.78 85.81 24.8 358.63 302.53 379.73 271.04-0.29 315.62-246.23 320.39-264 1.8-6.71 3.16-19.75-4.87-25.05l-134.77-68.89c0 0-143.76 71.74-178.72 88.93-22.96 10.72-42.21-15.6-17.44-40.15 37.26-36.94 109.27-106.26 122.57-123.06 0 0-13.55 2.64-32.32 6.4-8.46 1.7-19.51-6.09-14.83-21.79 4.38-14.68 10.68-32.55 10.68-32.55 0 0-176.12 76.89-208.66 90.44-18.36 5.74-29.38-11.91-20.96-29.8 5.53-11.73 11-24.63 11-24.63l-73.37 28.74c-19.21 6.56-49.26-6.29-20.64-34.74 34.89-34.7 113.26-113.45 113.26-113.45-15.05 6.28-29.84 13.22-45.12 18.95-6.59 2.48-124.93-53.69-179.38-87.12-42.61-26.93 32.16-382.7 378.51-375.64 53.16 1.01 151.28 19.82 244.84 107.58 101.73 95.43 126.45 255.84 86.61 355.67-5.44 13.53-47.13-9.44-40.19-48.87z"/>	
	<path fill="#000000" d="m186.3 1398.2c-15.7-5.1-38.6-10.8-43.3-29.4-6.2-24.6 17.2-42.3 39.2-44.5 17.2-1.8 37.3 4.8 46.9 20q5.9 9.4 5.9 20.5c-3.9 0-18.3 2.2-18.1-2.8 0.8-17.5-17.4-24.5-32.2-23.2-17.2 1.6-36.3 18.7-18 34.7 13.6 12 33.3 13.7 49.1 21.6 17.1 8.6 24.8 26.7 16.6 44.9-14.1 31.2-70 27.1-87.8 1.9q-6.5-9.2-6.5-20.8c0 0 17.7 0 17.8 0-1.4 0 3.3 12.5 4 13.7 11.2 18.6 57.7 18.1 57.7-8.8 0-16-15.1-22.6-31.3-27.8z"/>
	<path fill="#000000" d="m718.2 1397.9c-15.7-5-38.6-10.8-43.3-29.4-6.2-24.6 17.2-42.3 39.1-44.5 17.3-1.8 37.3 4.9 46.9 20q6 9.4 6 20.5c-4 0-18.3 2.2-18.1-2.8 0.8-17.5-17.5-24.5-32.2-23.1-17.3 1.5-36.3 18.6-18.1 34.6 13.6 12 33.4 13.7 49.1 21.6 17.1 8.6 24.9 26.7 16.7 44.9-14.1 31.2-70 27.1-87.8 1.9q-6.5-9.2-6.5-20.8c0 0 17.7 0 17.7 0-1.4 0 3.4 12.5 4.1 13.7 11.2 18.6 57.6 18.1 57.6-8.8 0-16-15.1-22.6-31.2-27.8z"/>
	<path fill-rule="evenodd" fill="#000000" d="m249.9 1409.2c0.2-16.9 7.4-33.8 21.8-43.4 14.3-9.6 33.9-8.8 48.3 0.2 24.9 15.5 28.6 58.2 10.1 79.7-12.1 14.2-32 19.3-49.5 12.9-20.6-7.6-31-28.5-30.7-49.4zm17.9 2.1q0 16.5 7.6 26.5 7.7 10 20.5 10c8.6 0 15.5-3.4 20.6-10.2q7.6-10.1 7.6-28.4 0-16.3-7.7-26.5-7.8-10.1-20.6-10.1c-8.6 0-15.2 3.3-20.3 10q-7.7 10-7.7 28.6z"/>
	<path fill="#000000" d="m423.7 1450q-9.9 11.7-29.1 11.7-15.8 0-24.2-9.3-8.3-9.2-8.4-27.3v-64.6h17v64.2q0 22.5 18.4 22.5 19.5 0 25.9-14.5v-72.2h17v99.3h-16.2c0 0-0.4-9.8-0.4-9.8z"/>
	<path fill="#000000" d="m483 1457.6v2.2h-16.9v-99.3h16l0.6 12.5q11.4-14.3 29.7-14.3 31.5 0 31.8 35.5v65.6h-17c0-14.3 0.7-28.6 0.8-42.9 0-10.9 2.5-29.5-5.4-38.2-12.5-13.6-39-3.1-39.4 13.2"/>
	<path fill-rule="evenodd" fill="#000000" d="m565.2 1409.3c0.1-12.7 3.3-25.2 9.8-34.6 13.1-18.8 42.1-22.2 57.5-4.1v-51.8h17v141h-15.6c0 0-0.8-10.2-0.8-10.6 0.2 2.9-9.5 8.1-11.7 9.1-12.7 5.9-28.8 3.9-39.5-5.1-12.1-10.3-16.7-27.8-16.7-43.1q0-0.4 0-0.8zm67.9 39.9q0 0 0 0 0 0 0 0zm-51-37.9c-0.2 13.7 4.8 27.3 15.6 33 12.6 6.6 28.4 0.9 34.8-11.6v-45.6c0-5.4-10.4-11.5-14.7-12.8-22.6-7.1-35.5 15.2-35.7 37z"/>
	<path fill="#000000" d="m827.2 1447.9c9.7-0.1 19.8-6.1 22.7-15.7q0.6-1.8 0.7-3.7h16.1c0.4 0-2.6 9.7-3 10.6-5.2 12.4-18.9 20.8-31.9 22.4-12.4 1.6-25.3-2.6-34.5-11-9.4-8.7-13.1-21.5-14-34-1.6-22.8 6.9-49.8 31.4-56.3 13.7-3.7 29.5-1.2 40.2 8.5q11 10 11.8 26c-5.3 0-10.9 0.6-16.1-0.1-2.3-13.2-11.5-23-25.7-22.1-20.6 1.5-24.9 22.3-24.9 39.2-0.1 16.6 7.7 36.6 27.2 36.3z"/>
	<path fill-rule="evenodd" fill="#000000" d="m947.1 1459.8q-1.5-2.9-2.4-10.4c0.7 6.1-13.6 9.4-17.7 10.4-9.7 2.6-20.3 2.6-29.2-2.7-8.5-5.1-14.4-14.3-15-24.2-0.7-12.8 6.9-22.7 18.2-27.9 9.8-4.5 20.4-4.5 31-4.8 3.9-0.1 9.7 1 12.1-2.8 1.9-2.8 0.7-7.9-0.2-10.9-4.6-17-35-20.1-40.9-2.5-1.7 5-4.7 4.4-9.3 4.4-4.8-0.1-8.8 1.3-8.4-4.1 0.4-5.9 5.7-12.3 10-16 5.9-4.9 13.3-7.7 20.8-9 11-1.9 23-0.4 32.2 5.9 14.1 9.7 13.1 24.8 13.1 40v31.4q0 13.7 3.5 21.8v1.4c0 0-17.8 0-17.8 0zm-28.2-12.9c10.1 0 21-5.6 25.5-14.9v-20.4h-13.3q-31.2 0-31.2 18.3c0 10.7 9 17 19 17z"/>
	<path fill-rule="evenodd" fill="#000000" d="m1071.9 1411.3q0 22.6-10.3 36.5-10.4 13.9-28.1 13.9c-11.8 0-21.6-3.9-28.5-11.5v47.8h-17v-137.5h15.5c0.3 3 0.1 6.4 1.1 9.2 15.9-10.6 36-17.2 52.2-2.2 11.3 10.5 15.1 27.3 15.1 42.2 0 0 0 1.6 0 1.6zm-16.4-2c-0.3-13.3-5.2-26.4-14.2-32.6-12.3-8.5-29.4-2.2-36.3 10v47.5q7.6 13.6 23.3 13.6c19.1 0 27.8-19.4 27.2-38.5z"/>
	<path fill-rule="evenodd" fill="#000000" d="m1106.1 1415.1c1.1 15.6 9.3 30.3 26.1 32.6 11.7 1.6 22.6-4.2 29.6-13.3l10.4 8.1q-12.5 19.2-37.5 19.2-20.2 0-32.8-13.3c-17.1-17.9-17.2-49.5-4.4-69.8 7.6-12 20.8-19.9 35.1-19.9q19.4 0 30.1 12.7 10.8 12.8 10.8 36.5v7.1m-16.9-14c-0.4-13.9-8.3-28.9-24-28.2-7.1 0.2-14.2 3.7-19 9.6-2.2 2.8-10.5 17.8-4.6 18.7z"/>
	<path fill="#000000" d="m972.4 553.2c2.5-17.6 14.8-157.6-94-269.7-73.5-75.8-170.5-88.8-191.1-90.9-76-7.9-138.5 15.3-187.3 43.1-125.9 71.8-144.6 196.2-151.1 242.6-1.6 11.6 125.5 72.6 126.7 72.3 22.1-4.9 177.5-83.7 195.8-92.2 19.1-8.8 37.3 17.1 23.4 30.9-13.9 13.9-105.9 105.6-133.6 133.2 82.8-21.4 37.3 48.8 37.3 48.8 0 0 181.4-79.2 212.7-92.5 31.2-13.3 23 15.9 23 15.9l-18 39.9c0 0 21.9-7.6 73.4-27.7 51.5-20.2 26.8 29 26.8 29l-121.8 120.2c0 0 41.4-18.2 50.4-20.3 9.1-2.1 162.2 81.9 173.1 88.5 37 17.4 1.1 374.3-362.3 374.5-361.8 0.2-401.3-429.3-336.3-467.6 12.9-7.6 33.8 35.2 33.8 35.2-22.8 85.9 24.8 358.7 302.5 379.8 271.1-0.3 315.7-246.3 320.4-264 1.8-6.7 3.2-19.8-4.9-25.1l-134.7-68.9c0 0-143.8 71.8-178.7 89-23 10.7-42.2-15.6-17.5-40.2 37.3-36.9 109.3-106.3 122.6-123.1 0 0-13.6 2.7-32.3 6.5-8.5 1.6-19.5-6.1-14.9-21.8 4.4-14.7 10.7-32.6 10.7-32.6 0 0-176.1 76.9-208.6 90.4-18.4 5.8-29.4-11.9-21-29.7 5.5-11.8 11-24.7 11-24.7l-73.4 28.8c-19.2 6.5-49.2-6.3-20.6-34.8 34.9-34.7 113.2-113.4 113.2-113.4-15 6.2-29.8 13.2-45.1 18.9-6.6 2.5-124.9-53.7-179.3-87.1-42.7-26.9 32.1-382.7 378.5-375.6 53.1 1 151.2 19.8 244.8 107.5 101.7 95.5 126.4 255.9 86.6 355.7-5.4 13.5-47.1-9.4-40.2-48.9z"/>
</svg>