<svg version="1.2" xmlns="http://www.w3.org/2000/svg" viewBox="0 0 1600 610" width="1600" height="610">	
	<path d="m351.8 267.49c0.81-5.65 4.75-50.63-30.11-86.67-23.55-24.35-54.62-28.51-61.24-29.2-24.33-2.53-44.38 4.91-59.99 13.84-40.35 23.08-46.34 63.05-48.41 77.98-0.52 3.73 40.21 23.32 40.6 23.24 7.08-1.57 56.86-26.92 62.72-29.64 6.12-2.84 11.95 5.48 7.5 9.95-4.45 4.46-33.92 33.93-42.82 42.77 26.54-6.87 11.97 15.68 11.97 15.68 0 0 58.13-25.45 68.13-29.71 10.01-4.27 7.38 5.12 7.38 5.12l-5.77 12.81c0 0 7.03-2.43 23.51-8.91 16.5-6.47 8.58 9.34 8.58 9.34l-39.02 38.62c0 0 13.26-5.86 16.17-6.52 2.91-0.67 51.93 26.32 55.42 28.42 11.88 5.61 0.38 120.29-116.04 120.36-115.93 0.07-128.59-137.95-107.76-150.26 4.13-2.44 10.83 11.32 10.83 11.32-7.3 27.58 7.95 115.24 96.93 122.03 86.83-0.1 101.11-79.13 102.65-84.84 0.57-2.16 1.01-6.35-1.56-8.05l-43.18-22.14c0 0-46.06 23.06-57.26 28.58-7.36 3.44-13.52-5.02-5.59-12.91 11.94-11.87 35.02-34.15 39.27-39.54 0 0-4.34 0.85-10.35 2.06-2.71 0.55-6.25-1.96-4.75-7.01 1.41-4.71 3.42-10.46 3.42-10.46 0 0-56.42 24.71-66.85 29.06-5.88 1.85-9.41-3.82-6.71-9.57 1.77-3.77 3.52-7.91 3.52-7.91l-23.5 9.23c-6.16 2.11-15.78-2.02-6.62-11.17 11.18-11.14 36.28-36.45 36.28-36.45-4.82 2.01-9.55 4.24-14.45 6.09-2.11 0.79-40.02-17.25-57.46-28-13.66-8.65 10.29-122.98 121.26-120.72 17.03 0.33 48.47 6.37 78.44 34.57 32.59 30.67 40.52 82.22 27.75 114.3-1.74 4.35-15.1-3.04-12.88-15.71z"/>
	<path fill="#ffffff" d="m351.8 267.5c0.8-5.7 4.7-50.6-30.1-86.7-23.6-24.3-54.6-28.5-61.2-29.2-24.4-2.5-44.4 4.9-60 13.9-40.4 23-46.4 63-48.5 77.9-0.5 3.8 40.3 23.4 40.6 23.3 7.1-1.6 56.9-26.9 62.8-29.7 6.1-2.8 11.9 5.5 7.5 10-4.5 4.4-34 33.9-42.8 42.8 26.5-6.9 11.9 15.6 11.9 15.6 0 0 58.1-25.4 68.2-29.7 10-4.2 7.3 5.1 7.3 5.1l-5.7 12.9c0 0 7-2.5 23.5-8.9 16.5-6.5 8.5 9.3 8.5 9.3l-39 38.6c0 0 13.3-5.9 16.2-6.5 2.9-0.7 51.9 26.3 55.4 28.4 11.9 5.6 0.4 120.3-116 120.4-116 0-128.6-138-107.8-150.3 4.2-2.4 10.9 11.3 10.9 11.3-7.4 27.6 7.9 115.3 96.9 122.1 86.8-0.1 101.1-79.2 102.6-84.9 0.6-2.1 1-6.3-1.5-8l-43.2-22.2c0 0-46.1 23.1-57.3 28.6-7.3 3.5-13.5-5-5.6-12.9 12-11.9 35.1-34.1 39.3-39.5 0 0-4.3 0.8-10.3 2-2.7 0.6-6.3-1.9-4.8-7 1.4-4.7 3.4-10.4 3.4-10.4 0 0-56.4 24.7-66.8 29-5.9 1.9-9.4-3.8-6.7-9.6 1.7-3.7 3.5-7.9 3.5-7.9l-23.5 9.3c-6.2 2.1-15.8-2.1-6.6-11.2 11.1-11.2 36.3-36.5 36.3-36.5-4.9 2.1-9.6 4.3-14.5 6.1-2.1 0.8-40-17.2-57.5-28-13.6-8.6 10.3-123 121.3-120.7 17 0.3 48.5 6.4 78.4 34.6 32.6 30.7 40.6 82.2 27.8 114.3-1.8 4.3-15.1-3.1-12.9-15.7z"/>
	<path fill="#ffffff" d="m505.3 329.5c-15.3-4.9-37.6-10.5-42.1-28.6-6.1-23.9 16.7-41.1 38-43.3 16.8-1.7 36.3 4.8 45.6 19.5q5.8 9.1 5.8 19.9c-3.8 0-17.8 2.1-17.6-2.7 0.8-17-17-23.8-31.3-22.5-16.8 1.5-35.3 18.1-17.5 33.7 13.2 11.6 32.4 13.3 47.7 21 16.6 8.4 24.2 25.9 16.2 43.6-13.7 30.4-68.1 26.4-85.4 1.9q-6.3-8.9-6.3-20.2c0 0 17.2 0 17.2 0-1.3 0 3.3 12.2 4 13.3 10.9 18 56 17.6 56-8.5 0-15.6-14.6-22-30.3-27.1z"/>
	<path fill="#ffffff" d="m1022.5 329.2c-15.3-4.9-37.5-10.4-42.1-28.6-6-23.9 16.7-41.1 38.1-43.2 16.8-1.8 36.2 4.7 45.6 19.5q5.7 9.1 5.7 19.9c-3.8 0-17.7 2.1-17.5-2.8 0.7-17-17-23.8-31.4-22.5-16.8 1.5-35.3 18.2-17.5 33.7 13.2 11.6 32.4 13.3 47.7 21 16.7 8.4 24.2 26 16.2 43.7-13.7 30.3-68.1 26.4-85.3 1.8q-6.3-8.9-6.3-20.2c0 0 17.2 0 17.2 0-1.4 0 3.3 12.2 4 13.3 10.9 18.1 56 17.6 56-8.5 0-15.6-14.7-22-30.4-27.1z"/>
	<path fill-rule="evenodd" fill="#ffffff" d="m567.1 340.2c0.2-16.4 7.2-32.8 21.2-42.2 13.9-9.4 32.9-8.5 46.9 0.2 24.2 15.1 27.9 56.6 9.9 77.6-11.8 13.7-31.1 18.6-48.1 12.4-20.1-7.3-30.2-27.7-29.9-48zm17.4 2q0 16.1 7.4 25.8 7.5 9.7 20 9.7c8.3 0 15-3.2 20-9.8q7.4-9.9 7.4-27.7 0-15.8-7.6-25.7-7.5-9.9-20-9.9c-8.3 0-14.7 3.3-19.7 9.8q-7.5 9.7-7.5 27.8z"/>
	<path fill="#ffffff" d="m736.2 379.9q-9.7 11.3-28.3 11.3-15.5 0-23.6-8.9-8.1-9-8.1-26.6v-62.9h16.5v62.4q0 22 17.8 22 19 0 25.2-14.1v-70.3h16.5v96.6h-15.7c0 0-0.4-9.5-0.3-9.5z"/>
	<path fill="#ffffff" d="m793.8 387.3v2.1h-16.5v-96.6h15.6l0.6 12.2q11-13.9 28.9-13.9 30.6 0 30.9 34.5v63.8h-16.5c0-13.9 0.7-27.8 0.8-41.7 0-10.6 2.4-28.7-5.3-37.1-12.2-13.3-37.9-3.1-38.3 12.8"/>
	<path fill-rule="evenodd" fill="#ffffff" d="m873.7 340.3c0.1-12.3 3.2-24.5 9.6-33.6 12.7-18.4 40.9-21.6 55.9-4v-50.4h16.5v137.1h-15.2c0 0-0.8-9.9-0.8-10.3 0.2 2.9-9.2 7.9-11.3 8.9-12.4 5.7-28 3.8-38.4-5-11.9-10-16.3-27-16.3-41.9q0-0.4 0-0.8zm66 38.8q0 0 0 0 0 0 0 0zm-49.6-36.9c-0.1 13.4 4.7 26.6 15.2 32.1 12.3 6.5 27.7 0.9 33.9-11.2v-44.4c0-5.2-10.2-11.1-14.3-12.4-22-6.9-34.6 14.8-34.8 35.9z"/>
	<path fill="#ffffff" d="m1128.5 377.9c9.5-0.2 19.3-6 22.1-15.4q0.5-1.7 0.7-3.5c0 0 15.6 0 15.6 0 0.4 0-2.5 9.4-2.8 10.3-5.2 12-18.5 20.2-31.1 21.8-12.1 1.5-24.6-2.6-33.5-10.8-9.2-8.4-12.7-20.9-13.6-33-1.6-22.2 6.7-48.4 30.5-54.8 13.3-3.5 28.7-1.1 39.1 8.3q10.7 9.7 11.4 25.2c-5.1 0-10.6 0.6-15.6 0-2.2-12.8-11.2-22.4-25-21.5-20 1.4-24.2 21.7-24.3 38.1 0 16.2 7.5 35.6 26.5 35.3z"/>
	<path fill-rule="evenodd" fill="#ffffff" d="m1245.1 389.4q-1.4-2.8-2.3-10.1c0.7 5.9-13.3 9.1-17.2 10.1-9.5 2.5-19.8 2.6-28.4-2.6-8.3-4.9-14-14-14.6-23.5-0.7-12.5 6.7-22.1 17.7-27.2 9.6-4.4 19.9-4.3 30.1-4.6 3.9-0.2 9.4 0.9 11.8-2.7 1.8-2.8 0.7-7.7-0.1-10.7-4.5-16.5-34.1-19.6-39.9-2.4-1.6 4.8-4.5 4.2-9 4.2-4.7 0-8.5 1.3-8.2-3.9 0.4-5.8 5.6-12 9.8-15.5 5.7-4.8 12.9-7.6 20.2-8.8 10.7-1.8 22.3-0.4 31.3 5.7 13.7 9.5 12.8 24.2 12.8 38.9v30.6q0 13.3 3.4 21.1v1.4zm-27.5-12.5c9.9 0 20.5-5.5 24.9-14.5v-19.8h-13q-30.3 0-30.3 17.7c0 10.5 8.7 16.6 18.4 16.6z"/>
	<path fill-rule="evenodd" fill="#ffffff" d="m1366.6 342.2q0 22.1-10.1 35.5-10.1 13.5-27.4 13.5c-11.4 0-20.9-3.7-27.6-11.1v46.5h-16.5v-133.7h15c0.3 2.9 0.1 6.2 1 9 15.5-10.3 35.1-16.8 50.9-2.2 10.9 10.2 14.7 26.6 14.7 41 0 0 0 1.5 0 1.5zm-16-1.9c-0.4-12.9-5.1-25.7-13.8-31.7-12-8.3-28.6-2.2-35.3 9.8v46.1q7.4 13.2 22.7 13.2c18.5 0 26.9-18.9 26.4-37.4z"/>
	<path fill-rule="evenodd" fill="#ffffff" d="m1399.8 346c1.1 15.1 9 29.4 25.3 31.6 11.4 1.6 22-4 28.9-12.9l10.1 7.9q-12.2 18.6-36.5 18.6-19.6 0-31.9-12.9c-16.7-17.4-16.8-48.1-4.3-67.8 7.4-11.7 20.2-19.4 34.2-19.4q18.8 0 29.3 12.4 10.4 12.4 10.4 35.5v6.9m-16.4-13.7c-0.4-13.4-8-28-23.3-27.4-6.9 0.3-13.9 3.6-18.5 9.4-2.2 2.7-10.2 17.3-4.5 18.1z"/>
</svg>